<?xml version="1.0" standalone="no"?><!DOCTYPE svg PUBLIC "-//W3C//DTD SVG 1.1//EN" "http://www.w3.org/Graphics/SVG/1.1/DTD/svg11.dtd"><svg t="1649868748259" class="icon" viewBox="0 0 1024 1024" version="1.1" xmlns="http://www.w3.org/2000/svg" p-id="3301" xmlns:xlink="http://www.w3.org/1999/xlink" width="200" height="200"><defs><style type="text/css"></style></defs><path d="M160 64h576a16 16 0 0 1 16 16v864a16 16 0 0 1-16 16H160a16 16 0 0 1-16-16V80a16 16 0 0 1 16-16z" fill="#FFFFFF" p-id="3302"></path><path d="M160 864h567.408V158.208H160z" fill="#A5F2DA" p-id="3303"></path><path d="M880 576H304c-17.664 0-32 13.312-32 29.712v148.576c0 16.4 14.336 29.712 32 29.712h576c17.664 0 32-13.312 32-29.712v-148.576C912 589.312 897.664 576 880 576zM880 272H304c-17.664 0-32 17.392-32 38.864v130.288c0 21.456 14.336 38.848 32 38.848h576c17.664 0 32-17.392 32-38.864v-130.288C912 289.392 897.664 272 880 272z" fill="#FFFFFF" p-id="3304"></path><path d="M352 592h480a32 32 0 0 1 32 32v88a32 32 0 0 1-32 32H352a32 32 0 0 1-32-32V624a32 32 0 0 1 32-32z" fill="#A5F2DA" p-id="3305"></path><path d="M720 96V70.464H176V96a32 32 0 0 0 32 32h480a32 32 0 0 0 32-32zM832 288H352a32 32 0 0 0-32 32v88a32 32 0 0 0 32 32h480a32 32 0 0 0 32-32V320a32 32 0 0 0-32-32z" fill="#24D796" p-id="3306"></path><path d="M728 936a16 16 0 0 1-16 16h-528a16 16 0 0 1-16-16v-752h560v23.312h32V104a48 48 0 0 0-48-48h-528a48 48 0 0 0-48 48v832a48 48 0 0 0 48 48h528a48 48 0 0 0 48-48v-71.04h-32v71.04z m-544-848h528a16 16 0 0 1 16 16v48h-560v-48a16 16 0 0 1 16-16z" fill="#203E81" p-id="3307"></path><path d="M392 888h120.368v32H392zM880 544H304c-26.256 0-48 20.192-48 45.712v180.576C256 795.808 277.744 816 304 816h576c26.256 0 48-20.192 48-45.712V589.712C928 564.192 906.256 544 880 544z m16 226.288c0 7.296-6.912 13.712-16 13.712H304c-9.088 0-16-6.416-16-13.712V589.712c0-7.296 6.912-13.712 16-13.712h576c9.088 0 16 6.416 16 13.712v180.576zM880 240H304c-26.256 0-48 20.192-48 45.712v180.576C256 491.808 277.744 512 304 512h576c26.256 0 48-20.192 48-45.712V285.712C928 260.192 906.256 240 880 240z m16 226.288c0 7.296-6.912 13.712-16 13.712H304c-9.088 0-16-6.416-16-13.712V285.712c0-7.296 6.912-13.712 16-13.712h576c9.088 0 16 6.416 16 13.712v180.576z" fill="#203E81" p-id="3308"></path><path d="M576 352h224v32H576zM384 352h32v32h-32zM480 352h32v32h-32zM554.144 721.568l27.712 16 64-99.136-27.712-16zM467.76 624L416 683.152l51.76 59.152 24.08-21.072-33.328-38.08 33.328-38.08zM704 645.072l33.312 38.08L704 721.232l24.08 21.072 51.76-59.152L728.08 624z" fill="#203E81" p-id="3309"></path></svg>